# xmcd
#
# Track frame offsets: 
#        150
#        16097
#        34080
#        50672
#        67733
#        83791
#        99833
#        127608
#        144305
#        159504
#        180339
#        203832
#        221317
#        239065
#
# Disc length: 3488 seconds
#
# Revision: 1
# Processed by: cddbd v1.5.2PL0 Copyright (c) Steve Scherf et al.
# Submitted via: ExactAudioCopyFreeDBPlugin 1.0
#
DISCID=a80d9e0e
DTITLE=Brantley Gilbert - Just As I Am (Deluxe Edition)
DYEAR=2014
DGENRE=Country Rock
TTITLE0=If You Want A Bad Boy
TTITLE1=17 Again
TTITLE2=Bottoms Up
TTITLE3=That Was Us
TTITLE4=I'm Gone
TTITLE5=My Baby's Guns N' Roses
TTITLE6=Lights Of My Hometown
TTITLE7=One Hell Of An Amen
TTITLE8=Small Town Throwdown Feat. Justin Moore and Thomas Rhett
TTITLE9=Let It Ride
TTITLE10=My Faith In You
TTITLE11=G.R.I.T.S
TTITLE12=Read Me My Rights
TTITLE13=Grown Ass Man
EXTD=
EXTT0=
EXTT1=
EXTT2=
EXTT3=
EXTT4=
EXTT5=
EXTT6=
EXTT7=
EXTT8=
EXTT9=
EXTT10=
EXTT11=
EXTT12=
EXTT13=
PLAYORDER=
